HIERARCHY
ROOT Hips
{
	OFFSET 52.366199 -31.631016 95.734795
	CHANNELS 6 Xposition Yposition Zposition Xrotation Yrotation Zrotation
	JOINT spine
	{
		OFFSET 0.000000 -0.458069 7.965683
		CHANNELS 3 Xrotation Yrotation Zrotation
		JOINT spine1
		{
			OFFSET 0.000000 -0.000004 10.243103
			CHANNELS 3 Xrotation Yrotation Zrotation
			JOINT spine2
			{
				OFFSET 0.000000 0.000000 9.814751
				CHANNELS 3 Xrotation Yrotation Zrotation
				JOINT Neck
				{
					OFFSET 0.000000 -1.201385 25.198608
					CHANNELS 3 Xrotation Yrotation Zrotation
					JOINT Head
					{
						OFFSET 0.000000 -0.000004 7.613144
						CHANNELS 3 Xrotation Yrotation Zrotation
						End Site
						{
							OFFSET 0.000000 6.077328 18.428101
						}
					}
				}
				JOINT RightShoulder
				{
					OFFSET -4.132702 0.575449 10.599213
					CHANNELS 3 Xrotation Yrotation Zrotation
					JOINT RightArm
					{
						OFFSET 0.000000 -0.000004 13.901794
						CHANNELS 3 Xrotation Yrotation Zrotation
						JOINT RightArmRoll
						{
							OFFSET 0.000000 0.000000 7.017883
							CHANNELS 3 Xrotation Yrotation Zrotation
							JOINT RightForeArm
							{
								OFFSET 0.000000 -0.000004 20.440598
								CHANNELS 3 Xrotation Yrotation Zrotation
								JOINT RightForeArmRoll
								{
									OFFSET 0.000000 -0.000002 7.875168
									CHANNELS 3 Xrotation Yrotation Zrotation
									JOINT RightHand
									{
										OFFSET 0.000000 -0.000002 15.803696
										CHANNELS 3 Xrotation Yrotation Zrotation
										End Site
										{
											OFFSET 0.000000 0.000000 0.100006
										}
									}
								}
							}
						}
					}
				}
				JOINT LeftShoulder
				{
					OFFSET 4.132702 0.575449 10.599213
					CHANNELS 3 Xrotation Yrotation Zrotation
					JOINT LeftArm
					{
						OFFSET 0.000000 -0.000004 13.901794
						CHANNELS 3 Xrotation Yrotation Zrotation
						JOINT LeftArmRoll
						{
							OFFSET 0.000000 0.000000 7.017883
							CHANNELS 3 Xrotation Yrotation Zrotation
							JOINT LeftForeArm
							{
								OFFSET 0.000000 -0.000004 20.440598
								CHANNELS 3 Xrotation Yrotation Zrotation
								JOINT LeftForeArmRoll
								{
									OFFSET 0.000000 -0.000002 7.875168
									CHANNELS 3 Xrotation Yrotation Zrotation
									JOINT LeftHand
									{
										OFFSET 0.000000 -0.000002 15.803696
										CHANNELS 3 Xrotation Yrotation Zrotation
										End Site
										{
											OFFSET 0.000000 0.000000 0.100006
										}
									}
								}
							}
						}
					}
				}
			}
		}
	}
	JOINT RightUpLeg
	{
		OFFSET -7.060482 1.086100 -1.294701
		CHANNELS 3 Xrotation Yrotation Zrotation
		JOINT RightUpLegRoll
		{
			OFFSET 0.000000 -0.000004 18.530800
			CHANNELS 3 Xrotation Yrotation Zrotation
			JOINT RightLeg
			{
				OFFSET 0.000000 0.000004 -22.947601
				CHANNELS 3 Xrotation Yrotation Zrotation
				JOINT RightLegRoll
				{
					OFFSET 0.000000 -0.000004 23.022598
					CHANNELS 3 Xrotation Yrotation Zrotation
					JOINT RightFoot
					{
						OFFSET 0.000000 -0.000002 19.162514
						CHANNELS 3 Xrotation Yrotation Zrotation
						JOINT RightToeBase
						{
							OFFSET 0.000000 -0.000004 16.018799
							CHANNELS 3 Xrotation Yrotation Zrotation
							End Site
							{
								OFFSET 0.006790 0.894207 7.757812
							}
						}
					}
				}
			}
		}
	}
	JOINT LeftUpLeg
	{
		OFFSET 7.060482 1.086100 -1.294701
		CHANNELS 3 Xrotation Yrotation Zrotation
		JOINT LeftUpLegRoll
		{
			OFFSET 0.000000 -0.000004 18.530899
			CHANNELS 3 Xrotation Yrotation Zrotation
			JOINT LeftLeg
			{
				OFFSET 0.000000 -0.000004 22.947510
				CHANNELS 3 Xrotation Yrotation Zrotation
				JOINT LeftLegRoll
				{
					OFFSET 0.000000 -0.000004 23.235504
					CHANNELS 3 Xrotation Yrotation Zrotation
					JOINT LeftFoot
					{
						OFFSET 0.000000 -0.000002 18.949600
						CHANNELS 3 Xrotation Yrotation Zrotation
						JOINT LeftToeBase
						{
							OFFSET 0.000000 -0.000004 16.018799
							CHANNELS 3 Xrotation Yrotation Zrotation
							End Site
							{
								OFFSET -0.030430 0.894207 7.757812
							}
						}
					}
				}
			}
		}
	}
}
MOTION
Frames: 13
Frame Time: 0.041667
52.388500 -3.850307 79.260704 30.075201 1.392945 9.629376 0.642324 0.312731 -0.186668 5.288570 0.621352 -0.379598 6.933652 0.616755 -0.387023 13.275218 1.397402 -2.896346 16.406867 0.154543 -3.068365 -4.957415 -63.693283 -6.286324 -58.455450 -125.274549 -65.872025 -0.000000 -0.000000 0.000000 42.813931 -14.076485 3.643487 0.000005 -0.000001 -3.001770 -4.999916 -7.998727 0.000107 -7.288771 67.688192 9.252557 -59.723734 132.682435 68.404263 0.000001 -0.000000 0.000000 39.440968 14.139747 -3.724152 0.000007 -0.000007 3.007770 -5.000117 7.998724 -0.000147 -80.559342 -167.298367 -5.764820 179.999991 0.000005 -0.350999 120.952227 -1.548643 -3.515183 -0.000001 -0.000004 0.376539 72.909647 4.763528 7.949459 25.457708 -7.354708 0.001123 -79.488218 178.770612 3.320746 -0.000001 -0.000003 -0.546774 -56.011762 1.658060 2.684901 -0.000004 0.000005 -0.547440 70.681181 -5.161987 -6.687872 25.456889 7.354548 -0.000001 
52.387299 -3.974220 79.412003 29.945206 1.389510 9.623967 0.627850 0.311116 -0.186694 5.259628 0.618086 -0.379692 6.904703 0.613492 -0.387077 13.179288 1.379344 -2.868102 16.599154 0.153683 -3.040391 -4.901463 -63.742911 -6.226323 -58.494799 -125.326526 -65.698640 -0.000000 0.000000 -0.000001 42.250652 -14.149311 3.621423 0.000003 -0.000001 -3.001770 -4.999919 -7.998729 0.000106 -7.344303 67.642034 9.311471 -59.598947 132.915194 67.957261 0.000001 -0.000000 0.000000 38.656412 14.106995 -3.645842 0.000005 -0.000006 3.007771 -5.000119 7.998720 -0.000148 -80.151129 -167.295211 -5.721385 179.999991 0.000005 -0.353007 121.202267 -1.599350 -3.519388 -0.000001 -0.000003 0.374504 72.935000 4.779571 7.905592 25.457705 -7.354707 0.001123 -79.098761 178.762375 3.352589 -0.000003 -0.000004 -0.547751 -55.757754 1.663418 2.670875 -0.000004 0.000006 -0.543864 70.691208 -5.169892 -6.667054 25.456890 7.354549 -0.000001 
52.288002 -4.145117 79.624397 29.804408 1.386291 9.611050 0.615242 0.309327 -0.185539 5.234394 0.614448 -0.377503 6.879480 0.609886 -0.384845 13.104763 1.360975 -2.844813 16.731062 0.154085 -3.017210 -4.854104 -63.789800 -6.175994 -58.527966 -125.385389 -65.520543 0.000001 0.000000 -0.000002 41.682671 -14.218744 3.596837 0.000002 0.000000 -3.001771 -4.999915 -7.998725 0.000109 -7.389167 67.609502 9.359442 -59.493024 133.137599 67.524486 -0.000001 0.000000 0.000000 37.862419 14.062343 -3.562151 0.000008 -0.000006 3.007770 -5.000118 7.998722 -0.000149 -79.729256 -167.301645 -5.674751 179.999991 0.000005 -0.355998 121.457948 -1.648767 -3.521629 -0.000001 -0.000004 0.372622 72.957437 4.796196 7.859729 25.457706 -7.354708 0.001123 -78.695766 178.742827 3.383181 -0.000004 -0.000004 -0.548761 -55.501154 1.669221 2.657616 -0.000004 0.000005 -0.540267 70.701481 -5.177943 -6.645746 25.456892 7.354549 -0.000001 
52.312798 -4.247574 79.751801 29.653215 1.383938 9.591537 0.604280 0.307317 -0.183313 5.212454 0.610335 -0.373249 6.857542 0.605830 -0.380541 13.046442 1.341353 -2.825369 16.818163 0.156577 -2.997997 -4.813017 -63.835276 -6.132825 -58.555273 -125.449907 -65.338266 -0.000000 0.000000 -0.000000 41.108931 -14.285540 3.570970 0.000003 0.000000 -3.001768 -4.999917 -7.998726 0.000106 -7.426939 67.585555 9.400105 -59.398692 133.354089 67.098276 -0.000000 -0.000000 0.000000 37.052940 14.004263 -3.474436 0.000005 -0.000006 3.007770 -5.000120 7.998724 -0.000147 -79.293988 -167.317232 -5.623983 179.999991 0.000005 -0.360001 121.719066 -1.697386 -3.523757 -0.000001 -0.000004 0.370870 72.977245 4.813436 7.811665 25.457706 -7.354708 0.001123 -78.279972 178.712651 3.412648 -0.000005 -0.000003 -0.549800 -55.241860 1.675100 2.644906 -0.000004 0.000005 -0.536641 70.711459 -5.186054 -6.624366 25.456890 7.354551 -0.000000 
52.291695 -4.379066 79.917999 29.492736 1.382415 9.566122 0.594760 0.305118 -0.180140 5.193402 0.605812 -0.367182 6.838477 0.601388 -0.374418 13.002118 1.320623 -2.809332 16.865569 0.160843 -2.982321 -4.778050 -63.879331 -6.096605 -58.577847 -125.519466 -65.152826 -0.000000 0.000001 -0.000001 40.530052 -14.349567 3.543651 0.000002 0.000001 -3.001770 -4.999915 -7.998729 0.000105 -7.458370 67.569313 9.434213 -59.315412 133.564363 66.679230 0.000000 0.000000 0.000000 36.231193 13.933608 -3.383674 0.000006 -0.000005 3.007771 -5.000122 7.998724 -0.000147 -78.847212 -167.340973 -5.570233 179.999991 0.000005 -0.364003 121.985075 -1.745149 -3.525788 -0.000001 -0.000004 0.369228 72.994437 4.831230 7.761892 25.457706 -7.354708 0.001123 -77.853051 178.673063 3.441059 -0.000005 -0.000004 -0.550865 -54.980072 1.681059 2.632678 -0.000004 0.000005 -0.532996 70.721152 -5.194200 -6.602799 25.456890 7.354550 0.000000 
52.287701 -4.501934 80.067299 29.324454 1.381650 9.535800 0.586464 0.302756 -0.176163 5.176786 0.600940 -0.359552 6.821873 0.596618 -0.366730 12.969589 1.298890 -2.796258 16.878077 0.166599 -2.969717 -4.749009 -63.922272 -6.067112 -58.597607 -125.592617 -64.966348 0.000000 -0.000000 -0.000000 39.946747 -14.410606 3.514704 0.000001 0.000000 -3.001770 -4.999914 -7.998726 0.000108 -7.484145 67.559867 9.462492 -59.242568 133.768107 66.267889 -0.000001 0.000000 0.000000 35.400075 13.851234 -3.290652 0.000007 -0.000006 3.007770 -5.000120 7.998721 -0.000148 -78.390272 -167.371641 -5.513804 179.999991 0.000004 -0.368004 122.255400 -1.792542 -3.526625 -0.000001 -0.000003 0.367684 73.009285 4.849516 7.710588 25.457703 -7.354708 0.001123 -77.416438 178.625238 3.468505 -0.000003 -0.000005 -0.551957 -54.715983 1.687098 2.620865 -0.000003 0.000005 -0.529344 70.730550 -5.202414 -6.581057 25.456890 7.354549 0.000000 
52.287498 -4.625574 80.237099 29.149390 1.381595 9.501274 0.579192 0.300260 -0.171510 5.162211 0.595786 -0.350618 6.807292 0.591580 -0.357733 12.946661 1.276262 -2.785719 16.860583 0.173572 -2.959744 -4.725639 -63.963936 -6.044067 -58.612087 -125.670331 -64.775240 -0.000000 -0.000000 0.000000 39.359655 -14.468468 3.483954 0.000002 0.000000 -3.001768 -4.999915 -7.998728 0.000109 -7.504960 67.556288 9.485650 -59.176937 133.966579 65.860912 0.000000 -0.000000 0.000000 34.562656 13.758202 -3.196288 0.000007 -0.000006 3.007770 -5.000118 7.998721 -0.000148 -77.924925 -167.408196 -5.455881 179.999991 0.000005 -0.371994 122.529728 -1.839537 -3.528269 -0.000001 -0.000004 0.366223 73.022092 4.868214 7.657831 25.457705 -7.354708 0.001123 -76.971697 178.570679 3.494085 -0.000005 -0.000003 -0.553072 -54.449886 1.693213 2.609393 -0.000004 0.000005 -0.525694 70.739450 -5.210708 -6.559052 25.456890 7.354550 -0.000000 
52.279202 -4.757126 80.390892 28.969028 1.382149 9.463359 0.572728 0.297663 -0.166315 5.149254 0.590414 -0.340629 6.794332 0.586338 -0.347678 12.931245 1.252853 -2.777285 16.817889 0.181505 -2.951941 -4.707775 -64.004480 -6.027280 -58.624388 -125.750613 -64.583113 -0.000000 -0.000001 0.000004 38.769503 -14.523105 3.451424 0.000001 -0.000000 -3.001770 -4.999918 -7.998729 0.000108 -7.521551 67.557927 9.504446 -59.118941 134.159026 65.460205 -0.000000 -0.000000 -0.000000 33.721945 13.655296 -3.101218 0.000006 -0.000005 3.007770 -5.000122 7.998726 -0.000147 -77.452446 -167.449696 -5.395576 179.999991 0.000005 -0.376994 122.807553 -1.886631 -3.529557 -0.000000 -0.000003 0.364831 73.033034 4.887198 7.604090 25.457703 -7.354708 0.001123 -76.520330 178.510300 3.518943 -0.000002 -0.000004 -0.554211 -54.181992 1.699395 2.598188 -0.000004 0.000005 -0.522054 70.748062 -5.219042 -6.536968 25.456894 7.354549 0.000000 
52.298397 -4.865665 80.547989 28.784572 1.383255 9.422850 0.566867 0.294991 -0.160712 5.137491 0.584887 -0.329840 6.782567 0.580952 -0.336822 12.921126 1.228740 -2.770511 16.754898 0.190146 -2.945865 -4.695213 -64.043979 -6.016484 -58.633137 -125.833832 -64.387941 0.000001 0.000000 -0.000000 38.177035 -14.574331 3.417003 0.000001 -0.000000 -3.001770 -4.999917 -7.998730 0.000107 -7.534562 67.563760 9.519523 -59.066301 134.346105 65.064047 0.000000 0.000000 -0.000000 32.880917 13.543506 -3.006117 0.000005 -0.000005 3.007770 -5.000119 7.998725 -0.000148 -76.974770 -167.494830 -5.334907 179.999991 0.000005 -0.381994 123.088287 -1.933230 -3.529686 -0.000001 -0.000003 0.363493 73.042296 4.906479 7.549365 25.457703 -7.354708 0.001123 -76.063801 178.445495 3.542451 -0.000005 -0.000004 -0.555371 -53.912411 1.705647 2.587169 -0.000004 0.000005 -0.518435 70.756102 -5.227556 -6.514335 25.456897 7.354548 -0.000000 
52.290298 -4.997623 80.704300 28.597319 1.384780 9.380593 0.561392 0.292275 -0.154832 5.126498 0.579270 -0.318504 6.771577 0.575484 -0.325419 12.914004 1.204035 -2.764988 16.676508 0.199251 -2.941069 -4.687752 -64.082495 -6.011462 -58.639134 -125.919155 -64.190575 -0.000000 0.000000 0.000001 37.582850 -14.621830 3.380466 -0.000001 0.000001 -3.001767 -4.999919 -7.998730 0.000106 -7.544688 67.573056 9.531631 -59.018667 134.527734 64.672951 0.000000 -0.000000 0.000000 32.042501 13.423688 -2.911484 0.000005 -0.000005 3.007770 -5.000123 7.998724 -0.000148 -76.493461 -167.542478 -5.274170 179.999991 0.000005 -0.386994 123.371617 -1.979852 -3.529491 -0.000000 -0.000003 0.362195 73.050096 4.925945 7.494031 25.457703 -7.354709 0.001123 -75.603787 178.377657 3.564232 -0.000005 -0.000003 -0.556552 -53.641522 1.711958 2.576284 -0.000004 0.000006 -0.514847 70.763738 -5.236127 -6.491531 25.456890 7.354547 0.000001 
52.317795 -5.066559 80.870102 28.408473 1.386637 9.337298 0.556090 0.289542 -0.148814 5.115862 0.573631 -0.306878 6.760942 0.569995 -0.313721 12.907784 1.178828 -2.760275 16.587618 0.208574 -2.937110 -4.685164 -64.120061 -6.011941 -58.642105 -126.006349 -63.990096 -0.000001 -0.000001 -0.000001 36.987810 -14.665564 3.341942 -0.000000 0.000002 -3.001768 -4.999916 -7.998730 0.000106 -7.552566 67.584756 9.541394 -58.975637 134.703597 64.287885 0.000000 0.000000 -0.000000 31.209713 13.296886 -2.817865 0.000007 -0.000005 3.007770 -5.000116 7.998726 -0.000148 -76.009767 -167.591505 -5.213313 179.999991 0.000005 -0.391992 123.657023 -2.026467 -3.530020 -0.000001 -0.000004 0.360925 73.056578 4.945549 7.438269 25.457705 -7.354708 0.001123 -75.141670 178.307826 3.585256 -0.000005 -0.000003 -0.557753 -53.369438 1.718327 2.565449 -0.000004 0.000005 -0.511296 70.770814 -5.244840 -6.468278 25.456890 7.354549 0.000000 
52.309296 -5.199541 81.021004 28.219435 1.388679 9.293905 0.550760 0.286823 -0.142788 5.105164 0.568031 -0.295212 6.750260 0.564544 -0.301989 12.900262 1.153229 -2.755980 16.493124 0.217874 -2.933549 -4.687241 -64.156664 -6.017679 -58.642959 -126.094622 -63.787437 -0.000002 -0.000000 0.000001 36.392505 -14.705165 3.301172 0.000003 -0.000001 -3.001771 -4.999920 -7.998730 0.000110 -7.558912 67.598150 9.549537 -58.934151 134.874994 63.905743 0.000000 0.000000 -0.000000 30.385292 13.163923 -2.725517 0.000009 -0.000004 3.007770 -5.000119 7.998723 -0.000147 -75.525438 -167.640942 -5.152599 179.999991 0.000004 -0.397007 123.944000 -2.073597 -3.529091 -0.000002 -0.000004 0.359663 73.062076 4.965184 7.382155 25.457706 -7.354708 0.001123 -74.679021 178.237420 3.604930 -0.000005 -0.000004 -0.558971 -53.096446 1.724734 2.554595 -0.000003 0.000005 -0.507796 70.777296 -5.253704 -6.444577 25.456890 7.354549 0.000000 
52.319096 -5.314339 81.178093 28.031383 1.390773 9.251018 0.545186 0.284146 -0.136886 5.093986 0.562536 -0.283761 6.739078 0.559198 -0.290472 12.889233 1.127309 -2.751666 16.397734 0.226903 -2.929941 -4.693763 -64.192536 -6.028417 -58.641286 -126.183674 -63.581862 0.000000 0.000000 0.000001 35.797677 -14.740470 3.258172 0.000001 -0.000000 -3.001772 -4.999915 -7.998728 0.000108 -7.564372 67.612377 9.556759 -58.893955 135.041733 63.527364 0.000000 0.000000 -0.000000 29.572267 13.025771 -2.634781 0.000007 -0.000004 3.007770 -5.000118 7.998724 -0.000149 -75.041854 -167.689737 -5.091956 179.999991 0.000005 -0.402006 124.232043 -2.121197 -3.529708 -0.000001 -0.000003 0.358399 73.066727 4.984775 7.326175 25.457705 -7.354708 0.001123 -74.217389 178.167752 3.623252 -0.000007 -0.000004 -0.560205 -52.822764 1.731175 2.543648 -0.000004 0.000005 -0.504355 70.783217 -5.262718 -6.420425 25.456890 7.354549 -0.000000 
